<svg xmlns="http://www.w3.org/2000/svg" viewBox="0 0 500 500" width="100%" height="100%">
  <defs>
    <linearGradient id="hoodieBg" x1="0%" y1="0%" x2="100%" y2="100%">
      <stop offset="0%" stop-color="#121212"/>
      <stop offset="100%" stop-color="#080808"/>
    </linearGradient>
  </defs>
  <rect width="500" height="500" fill="url(#hoodieBg)"/>
  <!-- Outline of a hoodie -->
  <path d="M 150,180 L 210,130 L 290,130 L 350,180 L 390,260 L 350,280 L 330,220 L 330,420 L 170,420 L 170,220 L 150,280 L 110,260 Z" fill="#181818" stroke="#333333" stroke-width="2"/>
  <!-- Hood -->
  <path d="M 200,140 C 200,80 300,80 300,140 Z" fill="#1c1c1c" stroke="#333333" stroke-width="2"/>
  <path d="M 210,140 C 210,100 290,100 290,140 Z" fill="#0f0f0f"/>
  <!-- Drawstrings -->
  <path d="M 235,145 L 235,220" stroke="#00D4D4" stroke-width="3" stroke-linecap="round"/>
  <path d="M 265,145 L 265,210" stroke="#00D4D4" stroke-width="3" stroke-linecap="round"/>
  <!-- Logo print on the chest -->
  <circle cx="250" cy="230" r="25" fill="none" stroke="#00D4D4" stroke-width="2"/>
  <path d="M 240,230 L 260,230 M 250,220 L 250,240" stroke="#00D4D4" stroke-width="2"/>
  <text x="50%" y="470" text-anchor="middle" fill="#ffffff" font-family="'Outfit', sans-serif" font-size="16" letter-spacing="4">XZENTREXUS HOODIE</text>
  <text x="50%" y="490" text-anchor="middle" fill="#00D4D4" font-family="'Outfit', sans-serif" font-size="12" letter-spacing="2">LIMITED EDITION</text>
</svg>
